<svg xmlns="http://www.w3.org/2000/svg" xmlns:xlink="http://www.w3.org/1999/xlink" width="1000" zoomAndPan="magnify" viewBox="0 0 750 525.000007" height="700" preserveAspectRatio="xMidYMid meet" version="1.0"><defs><clipPath id="c52a168b5b"><path d="M 0.714844 0 L 749.285156 0 L 749.285156 524 L 0.714844 524 Z M 0.714844 0 " clip-rule="nonzero"/></clipPath><clipPath id="9efbd8639d"><path d="M 0.714844 0 L 285 0 L 285 77 L 0.714844 77 Z M 0.714844 0 " clip-rule="nonzero"/></clipPath><clipPath id="deec003b9c"><path d="M 0.714844 23 L 288.636719 23 L 288.636719 133 L 0.714844 133 Z M 0.714844 23 " clip-rule="nonzero"/></clipPath><clipPath id="a84c16db09"><path d="M 464 454 L 749.285156 454 L 749.285156 524 L 464 524 Z M 464 454 " clip-rule="nonzero"/></clipPath><clipPath id="34ae38a7dd"><path d="M 461.425781 397 L 749.285156 397 L 749.285156 508 L 461.425781 508 Z M 461.425781 397 " clip-rule="nonzero"/></clipPath></defs><g clip-path="url(#c52a168b5b)"><path fill="#ffffff" d="M 0.714844 0 L 749.285156 0 L 749.285156 524 L 0.714844 524 Z M 0.714844 0 " fill-opacity="1" fill-rule="nonzero"/><path fill="#ffffff" d="M 0.714844 0 L 749.285156 0 L 749.285156 524 L 0.714844 524 Z M 0.714844 0 " fill-opacity="1" fill-rule="nonzero"/></g><g clip-path="url(#9efbd8639d)"><path fill="#fd5591" d="M -95.367188 46.414062 C -84.820312 14.144531 -42.375 -16.148438 -28.1875 -21.542969 C 59.222656 -54.773438 111.472656 18.367188 186.84375 30.238281 C 211.105469 34.058594 236.332031 31.507812 259.582031 23.890625 C 262.296875 22.996094 286.902344 12.324219 284.855469 14.203125 C 284.632812 14.425781 273.042969 30.355469 256.503906 42.273438 C 222.988281 66.429688 187.832031 81.558594 145.914062 74.542969 C 111.871094 68.863281 83.320312 50.257812 52.863281 35.316406 C 17.328125 17.871094 -18.441406 9.761719 -56.855469 22.691406 C -67.542969 26.289062 -77.710938 29.15625 -95.367188 46.414062 Z M -95.367188 46.414062 " fill-opacity="1" fill-rule="evenodd"/></g><g clip-path="url(#deec003b9c)"><path fill="#941565" d="M 288.699219 23.300781 C 281.765625 31.390625 276.875 37.136719 275.324219 38.785156 C 264.085938 50.597656 250.519531 59.414062 236.378906 67.523438 C 207.566406 84.0625 175.429688 90.199219 142.539062 85.308594 C 105.054688 79.726562 69.414062 62.917969 30.90625 64.257812 C 6.523438 65.113281 -16.253906 73.472656 -36.003906 87.683594 C -42.304688 92.222656 -48.347656 97.179688 -54.105469 102.402344 C -56.011719 104.128906 -57.878906 105.925781 -59.605469 107.832031 C -60.652344 108.984375 -63.851562 112.214844 -62.464844 111.523438 C -29.796875 95.183594 34.019531 113.472656 67.355469 120.785156 C 100.941406 128.15625 136.015625 136.171875 170.5625 131.175781 C 227.492188 122.949219 274.183594 77.972656 288.699219 23.300781 Z M 288.699219 23.300781 " fill-opacity="1" fill-rule="evenodd"/></g><g clip-path="url(#a84c16db09)"><path fill="#fd5591" d="M 843.929688 484.007812 C 833.417969 516.171875 791.105469 546.371094 776.960938 551.75 C 689.828125 584.875 637.738281 511.964844 562.601562 500.128906 C 538.417969 496.320312 513.269531 498.863281 490.09375 506.457031 C 487.386719 507.347656 462.859375 517.988281 464.898438 516.113281 C 465.121094 515.890625 476.675781 500.011719 493.160156 488.132812 C 526.570312 464.050781 561.617188 448.96875 603.40625 455.964844 C 637.339844 461.625 665.804688 480.175781 696.164062 495.066406 C 731.589844 512.457031 767.246094 520.542969 805.542969 507.652344 C 816.195312 504.066406 826.332031 501.207031 843.929688 484.007812 Z M 843.929688 484.007812 " fill-opacity="1" fill-rule="evenodd"/></g><g clip-path="url(#34ae38a7dd)"><path fill="#941565" d="M 461.066406 507.042969 C 467.980469 498.980469 472.855469 493.25 474.402344 491.613281 C 485.605469 479.835938 499.125 471.046875 513.222656 462.960938 C 541.945312 446.472656 573.980469 440.355469 606.769531 445.230469 C 644.136719 450.796875 679.667969 467.554688 718.054688 466.21875 C 742.359375 465.363281 765.066406 457.03125 784.753906 442.863281 C 791.035156 438.339844 797.058594 433.394531 802.800781 428.191406 C 804.699219 426.46875 806.5625 424.679688 808.285156 422.78125 C 809.328125 421.632812 812.515625 418.410156 811.132812 419.101562 C 778.566406 435.386719 714.949219 417.15625 681.71875 409.867188 C 648.238281 402.519531 613.273438 394.527344 578.832031 399.507812 C 522.082031 407.710938 475.539062 452.542969 461.066406 507.042969 Z M 461.066406 507.042969 " fill-opacity="1" fill-rule="evenodd"/></g></svg>