<svg xmlns="http://www.w3.org/2000/svg" xmlns:xlink="http://www.w3.org/1999/xlink" width="150" zoomAndPan="magnify" viewBox="0 0 112.5 82.499998" height="100" preserveAspectRatio="xMidYMid meet" version="1.0"><defs><g/><clipPath id="5c8fb48c73"><path d="M 8.484375 8.199219 L 43.898438 8.199219 L 43.898438 73.058594 L 8.484375 73.058594 Z M 8.484375 8.199219 " clip-rule="nonzero"/></clipPath><clipPath id="c0ea45cf07"><path d="M 12.035156 15.300781 L 43.898438 15.300781 L 43.898438 44.972656 L 12.035156 44.972656 Z M 12.035156 15.300781 " clip-rule="nonzero"/></clipPath></defs><g clip-path="url(#5c8fb48c73)"><path fill="#1a5319" d="M 27.742188 42.09375 C 7.652344 44.460938 4.898438 59.175781 12.09375 73.355469 C 9.101562 58.808594 14.597656 49.441406 25.984375 47.011719 C 33.117188 45.492188 42.3125 42.253906 43.691406 33.96875 C 43.71875 33.8125 43.726562 33.652344 43.746094 33.492188 C 40.472656 38.699219 34.90625 41.253906 27.742188 42.09375 Z M 37.851562 16.109375 C 38.863281 13.167969 39.347656 12.820312 42.460938 12.808594 C 39.515625 11.796875 39.171875 11.3125 39.15625 8.199219 C 38.144531 11.140625 37.660156 11.488281 34.546875 11.503906 C 37.492188 12.515625 37.839844 13 37.851562 16.109375 " fill-opacity="1" fill-rule="nonzero"/></g><g clip-path="url(#c0ea45cf07)"><path fill="#48c746" d="M 26.117188 29.90625 C 28.574219 29.90625 30.566406 27.914062 30.566406 25.453125 C 30.566406 22.996094 28.574219 21 26.117188 21 C 23.65625 21 21.664062 22.996094 21.664062 25.453125 C 21.664062 27.914062 23.65625 29.90625 26.117188 29.90625 Z M 41.398438 15.398438 C 44.527344 20.859375 40.222656 29.121094 25.554688 33.003906 C 16.753906 35.332031 13.289062 40.132812 12.15625 44.75 C 15.148438 41.476562 19.851562 38.722656 26.480469 37.527344 C 33.660156 36.238281 42.664062 32.296875 43.800781 23.976562 C 44.1875 21.160156 43.429688 17.949219 41.398438 15.398438 " fill-opacity="1" fill-rule="nonzero"/></g><g fill="#000000" fill-opacity="1"><g transform="translate(56.997252, 33.448041)"><g><path d="M 11.6875 -7.125 C 12.46875 -6.875 13.078125 -6.457031 13.515625 -5.875 C 13.960938 -5.300781 14.1875 -4.585938 14.1875 -3.734375 C 14.1875 -2.535156 13.71875 -1.613281 12.78125 -0.96875 C 11.851562 -0.320312 10.5 0 8.71875 0 L 1.625 0 L 1.625 -13.703125 L 8.328125 -13.703125 C 9.992188 -13.703125 11.273438 -13.378906 12.171875 -12.734375 C 13.066406 -12.097656 13.515625 -11.234375 13.515625 -10.140625 C 13.515625 -9.472656 13.351562 -8.878906 13.03125 -8.359375 C 12.707031 -7.835938 12.257812 -7.425781 11.6875 -7.125 Z M 4.78125 -11.3125 L 4.78125 -8.078125 L 7.921875 -8.078125 C 8.710938 -8.078125 9.304688 -8.210938 9.703125 -8.484375 C 10.109375 -8.765625 10.3125 -9.171875 10.3125 -9.703125 C 10.3125 -10.242188 10.109375 -10.644531 9.703125 -10.90625 C 9.304688 -11.175781 8.710938 -11.3125 7.921875 -11.3125 Z M 8.484375 -2.390625 C 9.316406 -2.390625 9.941406 -2.523438 10.359375 -2.796875 C 10.785156 -3.066406 11 -3.492188 11 -4.078125 C 11 -5.210938 10.160156 -5.78125 8.484375 -5.78125 L 4.78125 -5.78125 L 4.78125 -2.390625 Z M 8.484375 -2.390625 "/></g></g></g><g fill="#000000" fill-opacity="1"><g transform="translate(71.969588, 33.448041)"><g><path d="M 11.734375 -5.234375 C 11.734375 -5.191406 11.710938 -4.914062 11.671875 -4.40625 L 3.703125 -4.40625 C 3.847656 -3.75 4.1875 -3.234375 4.71875 -2.859375 C 5.25 -2.484375 5.914062 -2.296875 6.71875 -2.296875 C 7.257812 -2.296875 7.742188 -2.375 8.171875 -2.53125 C 8.597656 -2.695312 8.992188 -2.957031 9.359375 -3.3125 L 10.984375 -1.546875 C 9.992188 -0.410156 8.546875 0.15625 6.640625 0.15625 C 5.453125 0.15625 4.398438 -0.0703125 3.484375 -0.53125 C 2.566406 -1 1.859375 -1.644531 1.359375 -2.46875 C 0.867188 -3.289062 0.625 -4.222656 0.625 -5.265625 C 0.625 -6.296875 0.867188 -7.222656 1.359375 -8.046875 C 1.847656 -8.878906 2.519531 -9.523438 3.375 -9.984375 C 4.226562 -10.453125 5.1875 -10.6875 6.25 -10.6875 C 7.28125 -10.6875 8.210938 -10.460938 9.046875 -10.015625 C 9.878906 -9.578125 10.535156 -8.941406 11.015625 -8.109375 C 11.492188 -7.285156 11.734375 -6.328125 11.734375 -5.234375 Z M 6.265625 -8.375 C 5.578125 -8.375 4.992188 -8.175781 4.515625 -7.78125 C 4.046875 -7.394531 3.757812 -6.863281 3.65625 -6.1875 L 8.84375 -6.1875 C 8.738281 -6.851562 8.453125 -7.382812 7.984375 -7.78125 C 7.515625 -8.175781 6.941406 -8.375 6.265625 -8.375 Z M 6.265625 -8.375 "/></g></g></g><g fill="#000000" fill-opacity="1"><g transform="translate(84.319318, 33.448041)"><g><path d="M 7.8125 -10.6875 C 9.113281 -10.6875 10.164062 -10.296875 10.96875 -9.515625 C 11.769531 -8.734375 12.171875 -7.570312 12.171875 -6.03125 L 12.171875 0 L 9.125 0 L 9.125 -5.5625 C 9.125 -6.394531 8.941406 -7.015625 8.578125 -7.421875 C 8.210938 -7.835938 7.679688 -8.046875 6.984375 -8.046875 C 6.210938 -8.046875 5.597656 -7.804688 5.140625 -7.328125 C 4.691406 -6.859375 4.46875 -6.148438 4.46875 -5.203125 L 4.46875 0 L 1.40625 0 L 1.40625 -10.53125 L 4.328125 -10.53125 L 4.328125 -9.296875 C 4.734375 -9.742188 5.234375 -10.085938 5.828125 -10.328125 C 6.429688 -10.566406 7.09375 -10.6875 7.8125 -10.6875 Z M 7.8125 -10.6875 "/></g></g></g><g fill="#000000" fill-opacity="1"><g transform="translate(50.780748, 51.796524)"><g><path d="M 6.625 -5.390625 L 4.78125 -3.46875 L 4.78125 0 L 1.625 0 L 1.625 -13.703125 L 4.78125 -13.703125 L 4.78125 -7.296875 L 10.84375 -13.703125 L 14.375 -13.703125 L 8.6875 -7.59375 L 14.703125 0 L 11 0 Z M 6.625 -5.390625 "/></g></g></g><g fill="#000000" fill-opacity="1"><g transform="translate(65.263794, 51.796524)"><g><path d="M 1.40625 -10.53125 L 4.46875 -10.53125 L 4.46875 0 L 1.40625 0 Z M 2.9375 -12 C 2.375 -12 1.914062 -12.160156 1.5625 -12.484375 C 1.21875 -12.816406 1.046875 -13.222656 1.046875 -13.703125 C 1.046875 -14.179688 1.21875 -14.582031 1.5625 -14.90625 C 1.914062 -15.238281 2.375 -15.40625 2.9375 -15.40625 C 3.5 -15.40625 3.957031 -15.25 4.3125 -14.9375 C 4.664062 -14.625 4.84375 -14.234375 4.84375 -13.765625 C 4.84375 -13.253906 4.664062 -12.832031 4.3125 -12.5 C 3.957031 -12.164062 3.5 -12 2.9375 -12 Z M 2.9375 -12 "/></g></g></g><g fill="#000000" fill-opacity="1"><g transform="translate(71.154868, 51.796524)"><g><path d="M 0.625 3.953125 C -0.445312 3.953125 -1.265625 3.757812 -1.828125 3.375 L -1 1.15625 C -0.644531 1.40625 -0.210938 1.53125 0.296875 1.53125 C 0.679688 1.53125 0.984375 1.398438 1.203125 1.140625 C 1.429688 0.890625 1.546875 0.507812 1.546875 0 L 1.546875 -10.53125 L 4.59375 -10.53125 L 4.59375 -0.015625 C 4.59375 1.210938 4.242188 2.179688 3.546875 2.890625 C 2.847656 3.597656 1.875 3.953125 0.625 3.953125 Z M 3.078125 -12 C 2.515625 -12 2.054688 -12.160156 1.703125 -12.484375 C 1.359375 -12.816406 1.1875 -13.222656 1.1875 -13.703125 C 1.1875 -14.179688 1.359375 -14.582031 1.703125 -14.90625 C 2.054688 -15.238281 2.515625 -15.40625 3.078125 -15.40625 C 3.640625 -15.40625 4.097656 -15.25 4.453125 -14.9375 C 4.804688 -14.625 4.984375 -14.234375 4.984375 -13.765625 C 4.984375 -13.253906 4.804688 -12.832031 4.453125 -12.5 C 4.097656 -12.164062 3.640625 -12 3.078125 -12 Z M 3.078125 -12 "/></g></g></g><g fill="#000000" fill-opacity="1"><g transform="translate(77.163374, 51.796524)"><g><path d="M 12.015625 -10.53125 L 12.015625 0 L 9.125 0 L 9.125 -1.25 C 8.71875 -0.789062 8.234375 -0.441406 7.671875 -0.203125 C 7.109375 0.0351562 6.503906 0.15625 5.859375 0.15625 C 4.472656 0.15625 3.375 -0.238281 2.5625 -1.03125 C 1.75 -1.832031 1.34375 -3.015625 1.34375 -4.578125 L 1.34375 -10.53125 L 4.40625 -10.53125 L 4.40625 -5.03125 C 4.40625 -3.332031 5.117188 -2.484375 6.546875 -2.484375 C 7.273438 -2.484375 7.859375 -2.722656 8.296875 -3.203125 C 8.742188 -3.679688 8.96875 -4.390625 8.96875 -5.328125 L 8.96875 -10.53125 Z M 12.015625 -10.53125 "/></g></g></g><g fill="#000000" fill-opacity="1"><g transform="translate(90.609119, 51.796524)"><g><path d="M 12.015625 -10.53125 L 12.015625 0 L 9.125 0 L 9.125 -1.25 C 8.71875 -0.789062 8.234375 -0.441406 7.671875 -0.203125 C 7.109375 0.0351562 6.503906 0.15625 5.859375 0.15625 C 4.472656 0.15625 3.375 -0.238281 2.5625 -1.03125 C 1.75 -1.832031 1.34375 -3.015625 1.34375 -4.578125 L 1.34375 -10.53125 L 4.40625 -10.53125 L 4.40625 -5.03125 C 4.40625 -3.332031 5.117188 -2.484375 6.546875 -2.484375 C 7.273438 -2.484375 7.859375 -2.722656 8.296875 -3.203125 C 8.742188 -3.679688 8.96875 -4.390625 8.96875 -5.328125 L 8.96875 -10.53125 Z M 12.015625 -10.53125 "/></g></g></g><g fill="#000000" fill-opacity="1"><g transform="translate(52.348014, 64.493678)"><g><path d="M 2.09375 -4.875 L 2.09375 -3.296875 L 4.875 -3.296875 L 4.875 -2.1875 L 2.09375 -2.1875 L 2.09375 0 L 0.703125 0 L 0.703125 -6 L 5.234375 -6 L 5.234375 -4.875 Z M 2.09375 -4.875 "/></g></g></g><g fill="#000000" fill-opacity="1"><g transform="translate(57.81648, 64.493678)"><g><path d="M 2.8125 0.0625 C 2.320312 0.0625 1.882812 -0.0351562 1.5 -0.234375 C 1.113281 -0.441406 0.8125 -0.722656 0.59375 -1.078125 C 0.382812 -1.441406 0.28125 -1.847656 0.28125 -2.296875 C 0.28125 -2.753906 0.382812 -3.160156 0.59375 -3.515625 C 0.8125 -3.878906 1.113281 -4.160156 1.5 -4.359375 C 1.882812 -4.566406 2.320312 -4.671875 2.8125 -4.671875 C 3.289062 -4.671875 3.722656 -4.566406 4.109375 -4.359375 C 4.492188 -4.160156 4.789062 -3.878906 5 -3.515625 C 5.21875 -3.160156 5.328125 -2.753906 5.328125 -2.296875 C 5.328125 -1.847656 5.21875 -1.441406 5 -1.078125 C 4.789062 -0.722656 4.492188 -0.441406 4.109375 -0.234375 C 3.722656 -0.0351562 3.289062 0.0625 2.8125 0.0625 Z M 2.8125 -1.03125 C 3.15625 -1.03125 3.4375 -1.144531 3.65625 -1.375 C 3.875 -1.601562 3.984375 -1.910156 3.984375 -2.296875 C 3.984375 -2.691406 3.875 -3.003906 3.65625 -3.234375 C 3.4375 -3.460938 3.15625 -3.578125 2.8125 -3.578125 C 2.46875 -3.578125 2.179688 -3.460938 1.953125 -3.234375 C 1.734375 -3.003906 1.625 -2.691406 1.625 -2.296875 C 1.625 -1.910156 1.734375 -1.601562 1.953125 -1.375 C 2.179688 -1.144531 2.46875 -1.03125 2.8125 -1.03125 Z M 2.8125 -1.03125 "/></g></g></g><g fill="#000000" fill-opacity="1"><g transform="translate(63.421872, 64.493678)"><g><path d="M 5.25 -4.609375 L 5.25 0 L 3.984375 0 L 3.984375 -0.546875 C 3.804688 -0.347656 3.59375 -0.195312 3.34375 -0.09375 C 3.101562 0.0078125 2.84375 0.0625 2.5625 0.0625 C 1.957031 0.0625 1.476562 -0.109375 1.125 -0.453125 C 0.769531 -0.796875 0.59375 -1.3125 0.59375 -2 L 0.59375 -4.609375 L 1.921875 -4.609375 L 1.921875 -2.203125 C 1.921875 -1.460938 2.234375 -1.09375 2.859375 -1.09375 C 3.179688 -1.09375 3.4375 -1.195312 3.625 -1.40625 C 3.820312 -1.613281 3.921875 -1.921875 3.921875 -2.328125 L 3.921875 -4.609375 Z M 5.25 -4.609375 "/></g></g></g><g fill="#000000" fill-opacity="1"><g transform="translate(69.301113, 64.493678)"><g><path d="M 3.421875 -4.671875 C 3.984375 -4.671875 4.441406 -4.5 4.796875 -4.15625 C 5.148438 -3.8125 5.328125 -3.304688 5.328125 -2.640625 L 5.328125 0 L 3.984375 0 L 3.984375 -2.4375 C 3.984375 -2.800781 3.90625 -3.070312 3.75 -3.25 C 3.59375 -3.425781 3.363281 -3.515625 3.0625 -3.515625 C 2.71875 -3.515625 2.445312 -3.410156 2.25 -3.203125 C 2.050781 -2.992188 1.953125 -2.6875 1.953125 -2.28125 L 1.953125 0 L 0.609375 0 L 0.609375 -4.609375 L 1.890625 -4.609375 L 1.890625 -4.0625 C 2.066406 -4.257812 2.285156 -4.410156 2.546875 -4.515625 C 2.816406 -4.617188 3.109375 -4.671875 3.421875 -4.671875 Z M 3.421875 -4.671875 "/></g></g></g><g fill="#000000" fill-opacity="1"><g transform="translate(75.214585, 64.493678)"><g><path d="M 5.3125 -6.359375 L 5.3125 0 L 4.03125 0 L 4.03125 -0.53125 C 3.695312 -0.132812 3.21875 0.0625 2.59375 0.0625 C 2.15625 0.0625 1.757812 -0.03125 1.40625 -0.21875 C 1.0625 -0.414062 0.789062 -0.691406 0.59375 -1.046875 C 0.394531 -1.410156 0.296875 -1.828125 0.296875 -2.296875 C 0.296875 -2.773438 0.394531 -3.191406 0.59375 -3.546875 C 0.789062 -3.910156 1.0625 -4.1875 1.40625 -4.375 C 1.757812 -4.570312 2.15625 -4.671875 2.59375 -4.671875 C 3.175781 -4.671875 3.632812 -4.488281 3.96875 -4.125 L 3.96875 -6.359375 Z M 2.828125 -1.03125 C 3.160156 -1.03125 3.4375 -1.144531 3.65625 -1.375 C 3.882812 -1.601562 4 -1.910156 4 -2.296875 C 4 -2.691406 3.882812 -3.003906 3.65625 -3.234375 C 3.4375 -3.460938 3.160156 -3.578125 2.828125 -3.578125 C 2.484375 -3.578125 2.195312 -3.460938 1.96875 -3.234375 C 1.75 -3.003906 1.640625 -2.691406 1.640625 -2.296875 C 1.640625 -1.910156 1.75 -1.601562 1.96875 -1.375 C 2.195312 -1.144531 2.484375 -1.03125 2.828125 -1.03125 Z M 2.828125 -1.03125 "/></g></g></g><g fill="#000000" fill-opacity="1"><g transform="translate(81.136616, 64.493678)"><g><path d="M 2.46875 -4.671875 C 3.1875 -4.671875 3.734375 -4.5 4.109375 -4.15625 C 4.492188 -3.820312 4.6875 -3.3125 4.6875 -2.625 L 4.6875 0 L 3.4375 0 L 3.4375 -0.578125 C 3.1875 -0.148438 2.71875 0.0625 2.03125 0.0625 C 1.675781 0.0625 1.367188 0.00390625 1.109375 -0.109375 C 0.859375 -0.234375 0.660156 -0.398438 0.515625 -0.609375 C 0.378906 -0.816406 0.3125 -1.054688 0.3125 -1.328125 C 0.3125 -1.753906 0.472656 -2.085938 0.796875 -2.328125 C 1.117188 -2.578125 1.617188 -2.703125 2.296875 -2.703125 L 3.359375 -2.703125 C 3.359375 -2.992188 3.269531 -3.21875 3.09375 -3.375 C 2.914062 -3.53125 2.648438 -3.609375 2.296875 -3.609375 C 2.046875 -3.609375 1.800781 -3.566406 1.5625 -3.484375 C 1.332031 -3.410156 1.132812 -3.3125 0.96875 -3.1875 L 0.484375 -4.125 C 0.734375 -4.300781 1.035156 -4.4375 1.390625 -4.53125 C 1.742188 -4.625 2.101562 -4.671875 2.46875 -4.671875 Z M 2.375 -0.828125 C 2.601562 -0.828125 2.804688 -0.878906 2.984375 -0.984375 C 3.160156 -1.085938 3.285156 -1.242188 3.359375 -1.453125 L 3.359375 -1.921875 L 2.4375 -1.921875 C 1.894531 -1.921875 1.625 -1.742188 1.625 -1.390625 C 1.625 -1.210938 1.6875 -1.070312 1.8125 -0.96875 C 1.945312 -0.875 2.132812 -0.828125 2.375 -0.828125 Z M 2.375 -0.828125 "/></g></g></g><g fill="#000000" fill-opacity="1"><g transform="translate(86.416807, 64.493678)"><g><path d="M 3.59375 -0.21875 C 3.457031 -0.125 3.289062 -0.0507812 3.09375 0 C 2.90625 0.0390625 2.707031 0.0625 2.5 0.0625 C 1.945312 0.0625 1.519531 -0.0703125 1.21875 -0.34375 C 0.925781 -0.625 0.78125 -1.035156 0.78125 -1.578125 L 0.78125 -3.46875 L 0.0625 -3.46875 L 0.0625 -4.5 L 0.78125 -4.5 L 0.78125 -5.625 L 2.109375 -5.625 L 2.109375 -4.5 L 3.265625 -4.5 L 3.265625 -3.46875 L 2.109375 -3.46875 L 2.109375 -1.59375 C 2.109375 -1.40625 2.160156 -1.257812 2.265625 -1.15625 C 2.367188 -1.050781 2.507812 -1 2.6875 -1 C 2.894531 -1 3.078125 -1.054688 3.234375 -1.171875 Z M 3.59375 -0.21875 "/></g></g></g><g fill="#000000" fill-opacity="1"><g transform="translate(90.13947, 64.493678)"><g><path d="M 0.609375 -4.609375 L 1.953125 -4.609375 L 1.953125 0 L 0.609375 0 Z M 1.296875 -5.25 C 1.046875 -5.25 0.84375 -5.316406 0.6875 -5.453125 C 0.53125 -5.597656 0.453125 -5.78125 0.453125 -6 C 0.453125 -6.207031 0.53125 -6.378906 0.6875 -6.515625 C 0.84375 -6.660156 1.046875 -6.734375 1.296875 -6.734375 C 1.535156 -6.734375 1.734375 -6.664062 1.890625 -6.53125 C 2.046875 -6.394531 2.125 -6.222656 2.125 -6.015625 C 2.125 -5.796875 2.046875 -5.613281 1.890625 -5.46875 C 1.734375 -5.320312 1.535156 -5.25 1.296875 -5.25 Z M 1.296875 -5.25 "/></g></g></g><g fill="#000000" fill-opacity="1"><g transform="translate(92.715381, 64.493678)"><g><path d="M 2.8125 0.0625 C 2.320312 0.0625 1.882812 -0.0351562 1.5 -0.234375 C 1.113281 -0.441406 0.8125 -0.722656 0.59375 -1.078125 C 0.382812 -1.441406 0.28125 -1.847656 0.28125 -2.296875 C 0.28125 -2.753906 0.382812 -3.160156 0.59375 -3.515625 C 0.8125 -3.878906 1.113281 -4.160156 1.5 -4.359375 C 1.882812 -4.566406 2.320312 -4.671875 2.8125 -4.671875 C 3.289062 -4.671875 3.722656 -4.566406 4.109375 -4.359375 C 4.492188 -4.160156 4.789062 -3.878906 5 -3.515625 C 5.21875 -3.160156 5.328125 -2.753906 5.328125 -2.296875 C 5.328125 -1.847656 5.21875 -1.441406 5 -1.078125 C 4.789062 -0.722656 4.492188 -0.441406 4.109375 -0.234375 C 3.722656 -0.0351562 3.289062 0.0625 2.8125 0.0625 Z M 2.8125 -1.03125 C 3.15625 -1.03125 3.4375 -1.144531 3.65625 -1.375 C 3.875 -1.601562 3.984375 -1.910156 3.984375 -2.296875 C 3.984375 -2.691406 3.875 -3.003906 3.65625 -3.234375 C 3.4375 -3.460938 3.15625 -3.578125 2.8125 -3.578125 C 2.46875 -3.578125 2.179688 -3.460938 1.953125 -3.234375 C 1.734375 -3.003906 1.625 -2.691406 1.625 -2.296875 C 1.625 -1.910156 1.734375 -1.601562 1.953125 -1.375 C 2.179688 -1.144531 2.46875 -1.03125 2.8125 -1.03125 Z M 2.8125 -1.03125 "/></g></g></g><g fill="#000000" fill-opacity="1"><g transform="translate(98.320773, 64.493678)"><g><path d="M 3.421875 -4.671875 C 3.984375 -4.671875 4.441406 -4.5 4.796875 -4.15625 C 5.148438 -3.8125 5.328125 -3.304688 5.328125 -2.640625 L 5.328125 0 L 3.984375 0 L 3.984375 -2.4375 C 3.984375 -2.800781 3.90625 -3.070312 3.75 -3.25 C 3.59375 -3.425781 3.363281 -3.515625 3.0625 -3.515625 C 2.71875 -3.515625 2.445312 -3.410156 2.25 -3.203125 C 2.050781 -2.992188 1.953125 -2.6875 1.953125 -2.28125 L 1.953125 0 L 0.609375 0 L 0.609375 -4.609375 L 1.890625 -4.609375 L 1.890625 -4.0625 C 2.066406 -4.257812 2.285156 -4.410156 2.546875 -4.515625 C 2.816406 -4.617188 3.109375 -4.671875 3.421875 -4.671875 Z M 3.421875 -4.671875 "/></g></g></g></svg>