<svg xmlns="http://www.w3.org/2000/svg" xmlns:xlink="http://www.w3.org/1999/xlink" width="115" zoomAndPan="magnify" viewBox="0 0 86.25 52.499999" height="70" preserveAspectRatio="xMidYMid meet" version="1.0"><defs><filter x="0%" y="0%" width="100%" height="100%" id="9d09c2b295"><feColorMatrix values="0 0 0 0 1 0 0 0 0 1 0 0 0 0 1 0 0 0 1 0" color-interpolation-filters="sRGB"/></filter><mask id="23f8d87cf2"><g filter="url(#9d09c2b295)"><rect x="-8.625" width="103.5" fill="#000000" y="-5.25" height="62.999998" fill-opacity="0.5"/></g></mask><clipPath id="77554d9c89"><path d="M 0.492188 0.222656 L 45.871094 0.222656 L 45.871094 49.777344 L 0.492188 49.777344 Z M 0.492188 0.222656 " clip-rule="nonzero"/></clipPath><clipPath id="a955c30da7"><path d="M 0.492188 0.269531 L 4.1875 8.644531 L 29.191406 8.644531 C 29.191406 8.644531 34.734375 8.398438 35.226562 14.433594 C 35.226562 14.433594 36.335938 18.253906 30.421875 19.605469 L 8.992188 19.605469 L 12.933594 27.738281 L 29.808594 27.738281 C 29.808594 27.738281 37.195312 30.078125 37.074219 37.097656 C 37.074219 37.097656 38.550781 43.625 24.757812 48.429688 L 24.757812 49.660156 C 24.757812 49.660156 46.558594 51.632812 45.820312 35.25 C 45.820312 35.25 46.929688 28.105469 38.796875 23.425781 C 38.796875 23.425781 46.066406 19.730469 44.21875 11.476562 C 44.21875 11.476562 43.972656 1.871094 31.53125 0.269531 Z M 0.492188 0.269531 " clip-rule="nonzero"/></clipPath><clipPath id="591d2b5061"><rect x="0" width="47" y="0" height="50"/></clipPath><mask id="144ea386ec"><g filter="url(#9d09c2b295)"><rect x="-8.625" width="103.5" fill="#000000" y="-5.25" height="62.999998" fill-opacity="0.5"/></g></mask><clipPath id="e7ee48b8d7"><path d="M 0.492188 0.222656 L 45.871094 0.222656 L 45.871094 49.777344 L 0.492188 49.777344 Z M 0.492188 0.222656 " clip-rule="nonzero"/></clipPath><clipPath id="fd01c14333"><path d="M 0.492188 0.269531 L 4.1875 8.644531 L 29.191406 8.644531 C 29.191406 8.644531 34.734375 8.398438 35.226562 14.433594 C 35.226562 14.433594 36.335938 18.253906 30.421875 19.605469 L 8.992188 19.605469 L 12.933594 27.738281 L 29.808594 27.738281 C 29.808594 27.738281 37.195312 30.078125 37.074219 37.097656 C 37.074219 37.097656 38.550781 43.625 24.757812 48.429688 L 24.757812 49.660156 C 24.757812 49.660156 46.558594 51.632812 45.820312 35.25 C 45.820312 35.25 46.929688 28.105469 38.796875 23.425781 C 38.796875 23.425781 46.066406 19.730469 44.21875 11.476562 C 44.21875 11.476562 43.972656 1.871094 31.53125 0.269531 Z M 0.492188 0.269531 " clip-rule="nonzero"/></clipPath><clipPath id="4b6b256a58"><rect x="0" width="47" y="0" height="50"/></clipPath><mask id="628087695e"><g filter="url(#9d09c2b295)"><rect x="-8.625" width="103.5" fill="#000000" y="-5.25" height="62.999998" fill-opacity="0.5"/></g></mask><clipPath id="f141fb7ef7"><path d="M 0.492188 0.222656 L 45.871094 0.222656 L 45.871094 49.777344 L 0.492188 49.777344 Z M 0.492188 0.222656 " clip-rule="nonzero"/></clipPath><clipPath id="20c13be44f"><path d="M 0.492188 0.269531 L 4.1875 8.644531 L 29.191406 8.644531 C 29.191406 8.644531 34.734375 8.398438 35.226562 14.433594 C 35.226562 14.433594 36.335938 18.253906 30.421875 19.605469 L 8.992188 19.605469 L 12.933594 27.738281 L 29.808594 27.738281 C 29.808594 27.738281 37.195312 30.078125 37.074219 37.097656 C 37.074219 37.097656 38.550781 43.625 24.757812 48.429688 L 24.757812 49.660156 C 24.757812 49.660156 46.558594 51.632812 45.820312 35.25 C 45.820312 35.25 46.929688 28.105469 38.796875 23.425781 C 38.796875 23.425781 46.066406 19.730469 44.21875 11.476562 C 44.21875 11.476562 43.972656 1.871094 31.53125 0.269531 Z M 0.492188 0.269531 " clip-rule="nonzero"/></clipPath><clipPath id="b76b29038e"><rect x="0" width="47" y="0" height="50"/></clipPath><mask id="a50529ed33"><g filter="url(#9d09c2b295)"><rect x="-8.625" width="103.5" fill="#000000" y="-5.25" height="62.999998" fill-opacity="0.5"/></g></mask><clipPath id="80ea178f09"><path d="M 0.492188 0.222656 L 45.871094 0.222656 L 45.871094 49.777344 L 0.492188 49.777344 Z M 0.492188 0.222656 " clip-rule="nonzero"/></clipPath><clipPath id="c37ed39d69"><path d="M 0.492188 0.269531 L 4.1875 8.644531 L 29.191406 8.644531 C 29.191406 8.644531 34.734375 8.398438 35.226562 14.433594 C 35.226562 14.433594 36.335938 18.253906 30.421875 19.605469 L 8.992188 19.605469 L 12.933594 27.738281 L 29.808594 27.738281 C 29.808594 27.738281 37.195312 30.078125 37.074219 37.097656 C 37.074219 37.097656 38.550781 43.625 24.757812 48.429688 L 24.757812 49.660156 C 24.757812 49.660156 46.558594 51.632812 45.820312 35.25 C 45.820312 35.25 46.929688 28.105469 38.796875 23.425781 C 38.796875 23.425781 46.066406 19.730469 44.21875 11.476562 C 44.21875 11.476562 43.972656 1.871094 31.53125 0.269531 Z M 0.492188 0.269531 " clip-rule="nonzero"/></clipPath><clipPath id="6315d99da7"><rect x="0" width="47" y="0" height="50"/></clipPath><mask id="dfecd930d7"><g filter="url(#9d09c2b295)"><rect x="-8.625" width="103.5" fill="#000000" y="-5.25" height="62.999998" fill-opacity="0.5"/></g></mask><clipPath id="a1b559980f"><path d="M 0.492188 0.222656 L 45.871094 0.222656 L 45.871094 49.777344 L 0.492188 49.777344 Z M 0.492188 0.222656 " clip-rule="nonzero"/></clipPath><clipPath id="57db983aff"><path d="M 0.492188 0.269531 L 4.1875 8.644531 L 29.191406 8.644531 C 29.191406 8.644531 34.734375 8.398438 35.226562 14.433594 C 35.226562 14.433594 36.335938 18.253906 30.421875 19.605469 L 8.992188 19.605469 L 12.933594 27.738281 L 29.808594 27.738281 C 29.808594 27.738281 37.195312 30.078125 37.074219 37.097656 C 37.074219 37.097656 38.550781 43.625 24.757812 48.429688 L 24.757812 49.660156 C 24.757812 49.660156 46.558594 51.632812 45.820312 35.25 C 45.820312 35.25 46.929688 28.105469 38.796875 23.425781 C 38.796875 23.425781 46.066406 19.730469 44.21875 11.476562 C 44.21875 11.476562 43.972656 1.871094 31.53125 0.269531 Z M 0.492188 0.269531 " clip-rule="nonzero"/></clipPath><clipPath id="f263f7c3ac"><rect x="0" width="47" y="0" height="50"/></clipPath><mask id="a6027661b7"><g filter="url(#9d09c2b295)"><rect x="-8.625" width="103.5" fill="#000000" y="-5.25" height="62.999998" fill-opacity="0.5"/></g></mask><clipPath id="ab2bcfd9ca"><path d="M 0.789062 0.269531 L 36.054688 0.269531 L 36.054688 49.195312 L 0.789062 49.195312 Z M 0.789062 0.269531 " clip-rule="nonzero"/></clipPath><clipPath id="47cd077487"><path d="M 0.789062 24.78125 L 22.097656 0.882812 L 34.292969 0.269531 L 12.613281 24.78125 L 36.015625 49.167969 L 23.945312 49.167969 Z M 0.789062 24.78125 " clip-rule="nonzero"/></clipPath><clipPath id="52f4b03d99"><rect x="0" width="37" y="0" height="50"/></clipPath><mask id="a1d8645eee"><g filter="url(#9d09c2b295)"><rect x="-8.625" width="103.5" fill="#000000" y="-5.25" height="62.999998" fill-opacity="0.5"/></g></mask><clipPath id="f5b66e36c1"><path d="M 0.789062 0.269531 L 36.054688 0.269531 L 36.054688 49.195312 L 0.789062 49.195312 Z M 0.789062 0.269531 " clip-rule="nonzero"/></clipPath><clipPath id="d81a4a50cf"><path d="M 0.789062 24.78125 L 22.097656 0.882812 L 34.292969 0.269531 L 12.613281 24.78125 L 36.015625 49.167969 L 23.945312 49.167969 Z M 0.789062 24.78125 " clip-rule="nonzero"/></clipPath><clipPath id="0cf5fd035c"><rect x="0" width="37" y="0" height="50"/></clipPath><mask id="09de5d42b7"><g filter="url(#9d09c2b295)"><rect x="-8.625" width="103.5" fill="#000000" y="-5.25" height="62.999998" fill-opacity="0.5"/></g></mask><clipPath id="997e739997"><path d="M 0.789062 0.269531 L 36.054688 0.269531 L 36.054688 49.195312 L 0.789062 49.195312 Z M 0.789062 0.269531 " clip-rule="nonzero"/></clipPath><clipPath id="ea5c15dac2"><path d="M 0.789062 24.78125 L 22.097656 0.882812 L 34.292969 0.269531 L 12.613281 24.78125 L 36.015625 49.167969 L 23.945312 49.167969 Z M 0.789062 24.78125 " clip-rule="nonzero"/></clipPath><clipPath id="0b63c8382f"><rect x="0" width="37" y="0" height="50"/></clipPath><mask id="1eccaef81c"><g filter="url(#9d09c2b295)"><rect x="-8.625" width="103.5" fill="#000000" y="-5.25" height="62.999998" fill-opacity="0.5"/></g></mask><clipPath id="8c5f76c98a"><path d="M 0.789062 0.269531 L 36.054688 0.269531 L 36.054688 49.195312 L 0.789062 49.195312 Z M 0.789062 0.269531 " clip-rule="nonzero"/></clipPath><clipPath id="8b13df6ca8"><path d="M 0.789062 24.78125 L 22.097656 0.882812 L 34.292969 0.269531 L 12.613281 24.78125 L 36.015625 49.167969 L 23.945312 49.167969 Z M 0.789062 24.78125 " clip-rule="nonzero"/></clipPath><clipPath id="76078426b0"><rect x="0" width="37" y="0" height="50"/></clipPath><mask id="a8d4517c57"><g filter="url(#9d09c2b295)"><rect x="-8.625" width="103.5" fill="#000000" y="-5.25" height="62.999998" fill-opacity="0.5"/></g></mask><clipPath id="c82288b55c"><path d="M 0.789062 0.269531 L 36.054688 0.269531 L 36.054688 49.195312 L 0.789062 49.195312 Z M 0.789062 0.269531 " clip-rule="nonzero"/></clipPath><clipPath id="425f037c7a"><path d="M 0.789062 24.78125 L 22.097656 0.882812 L 34.292969 0.269531 L 12.613281 24.78125 L 36.015625 49.167969 L 23.945312 49.167969 Z M 0.789062 24.78125 " clip-rule="nonzero"/></clipPath><clipPath id="40f9aaf858"><rect x="0" width="37" y="0" height="50"/></clipPath></defs><g mask="url(#23f8d87cf2)"><g transform="matrix(1, 0, 0, 1, 3, 1)"><g clip-path="url(#591d2b5061)"><g clip-path="url(#77554d9c89)"><g clip-path="url(#a955c30da7)"><path fill="#3b5144" d="M 0.492188 0.269531 L 45.871094 0.269531 L 45.871094 49.730469 L 0.492188 49.730469 Z M 0.492188 0.269531 " fill-opacity="1" fill-rule="nonzero"/></g></g></g></g></g><g mask="url(#144ea386ec)"><g transform="matrix(1, 0, 0, 1, 3, 1)"><g clip-path="url(#4b6b256a58)"><g clip-path="url(#e7ee48b8d7)"><g clip-path="url(#fd01c14333)"><path fill="#3b5144" d="M 0.492188 0.269531 L 45.871094 0.269531 L 45.871094 49.730469 L 0.492188 49.730469 Z M 0.492188 0.269531 " fill-opacity="1" fill-rule="nonzero"/></g></g></g></g></g><g mask="url(#628087695e)"><g transform="matrix(1, 0, 0, 1, 3, 1)"><g clip-path="url(#b76b29038e)"><g clip-path="url(#f141fb7ef7)"><g clip-path="url(#20c13be44f)"><path fill="#3b5144" d="M 0.492188 0.269531 L 45.871094 0.269531 L 45.871094 49.730469 L 0.492188 49.730469 Z M 0.492188 0.269531 " fill-opacity="1" fill-rule="nonzero"/></g></g></g></g></g><g mask="url(#a50529ed33)"><g transform="matrix(1, 0, 0, 1, 3, 1)"><g clip-path="url(#6315d99da7)"><g clip-path="url(#80ea178f09)"><g clip-path="url(#c37ed39d69)"><path fill="#3b5144" d="M 0.492188 0.269531 L 45.871094 0.269531 L 45.871094 49.730469 L 0.492188 49.730469 Z M 0.492188 0.269531 " fill-opacity="1" fill-rule="nonzero"/></g></g></g></g></g><g mask="url(#dfecd930d7)"><g transform="matrix(1, 0, 0, 1, 3, 1)"><g clip-path="url(#f263f7c3ac)"><g clip-path="url(#a1b559980f)"><g clip-path="url(#57db983aff)"><path fill="#3b5144" d="M 0.492188 0.269531 L 45.871094 0.269531 L 45.871094 49.730469 L 0.492188 49.730469 Z M 0.492188 0.269531 " fill-opacity="1" fill-rule="nonzero"/></g></g></g></g></g><g mask="url(#a6027661b7)"><g transform="matrix(1, 0, 0, 1, 46, 1)"><g clip-path="url(#52f4b03d99)"><g clip-path="url(#ab2bcfd9ca)"><g clip-path="url(#47cd077487)"><path fill="#3b5144" d="M 0.789062 0.269531 L 36.015625 0.269531 L 36.015625 49.148438 L 0.789062 49.148438 Z M 0.789062 0.269531 " fill-opacity="1" fill-rule="nonzero"/></g></g></g></g></g><g mask="url(#a1d8645eee)"><g transform="matrix(1, 0, 0, 1, 46, 1)"><g clip-path="url(#0cf5fd035c)"><g clip-path="url(#f5b66e36c1)"><g clip-path="url(#d81a4a50cf)"><path fill="#3b5144" d="M 0.789062 0.269531 L 36.015625 0.269531 L 36.015625 49.148438 L 0.789062 49.148438 Z M 0.789062 0.269531 " fill-opacity="1" fill-rule="nonzero"/></g></g></g></g></g><g mask="url(#09de5d42b7)"><g transform="matrix(1, 0, 0, 1, 46, 1)"><g clip-path="url(#0b63c8382f)"><g clip-path="url(#997e739997)"><g clip-path="url(#ea5c15dac2)"><path fill="#3b5144" d="M 0.789062 0.269531 L 36.015625 0.269531 L 36.015625 49.148438 L 0.789062 49.148438 Z M 0.789062 0.269531 " fill-opacity="1" fill-rule="nonzero"/></g></g></g></g></g><g mask="url(#1eccaef81c)"><g transform="matrix(1, 0, 0, 1, 46, 1)"><g clip-path="url(#76078426b0)"><g clip-path="url(#8c5f76c98a)"><g clip-path="url(#8b13df6ca8)"><path fill="#3b5144" d="M 0.789062 0.269531 L 36.015625 0.269531 L 36.015625 49.148438 L 0.789062 49.148438 Z M 0.789062 0.269531 " fill-opacity="1" fill-rule="nonzero"/></g></g></g></g></g><g mask="url(#a8d4517c57)"><g transform="matrix(1, 0, 0, 1, 46, 1)"><g clip-path="url(#40f9aaf858)"><g clip-path="url(#c82288b55c)"><g clip-path="url(#425f037c7a)"><path fill="#3b5144" d="M 0.789062 0.269531 L 36.015625 0.269531 L 36.015625 49.148438 L 0.789062 49.148438 Z M 0.789062 0.269531 " fill-opacity="1" fill-rule="nonzero"/></g></g></g></g></g></svg>