<svg xmlns="http://www.w3.org/2000/svg" xmlns:xlink="http://www.w3.org/1999/xlink" width="55" zoomAndPan="magnify" viewBox="0 0 41.25 74.999998" height="100" preserveAspectRatio="xMidYMid meet" version="1.0"><defs><clipPath id="5d60982f53"><path d="M 2.148438 4.183594 L 38.179688 4.183594 L 38.179688 70.476562 L 2.148438 70.476562 Z M 2.148438 4.183594 " clip-rule="nonzero"/></clipPath><clipPath id="4e23de3f64"><path d="M 5.78125 11.445312 L 38.179688 11.445312 L 38.179688 41.789062 L 5.78125 41.789062 Z M 5.78125 11.445312 " clip-rule="nonzero"/></clipPath></defs><g clip-path="url(#5d60982f53)"><path fill="#9d0063" d="M 21.84375 38.847656 C 1.296875 41.265625 -1.519531 56.320312 5.839844 70.820312 C 2.78125 55.941406 8.398438 46.363281 20.046875 43.878906 C 27.34375 42.324219 36.746094 39.011719 38.15625 30.539062 C 38.183594 30.378906 38.191406 30.214844 38.210938 30.050781 C 34.863281 35.375 29.167969 37.988281 21.84375 38.847656 Z M 32.183594 12.273438 C 33.21875 9.265625 33.714844 8.910156 36.898438 8.898438 C 33.886719 7.859375 33.53125 7.367188 33.519531 4.183594 C 32.484375 7.191406 31.988281 7.546875 28.804688 7.5625 C 31.816406 8.59375 32.167969 9.089844 32.183594 12.273438 " fill-opacity="1" fill-rule="nonzero"/></g><g clip-path="url(#4e23de3f64)"><path fill="#ff347d" d="M 20.179688 26.382812 C 22.695312 26.382812 24.734375 24.34375 24.734375 21.828125 C 24.734375 19.3125 22.695312 17.277344 20.179688 17.277344 C 17.667969 17.277344 15.628906 19.3125 15.628906 21.828125 C 15.628906 24.34375 17.667969 26.382812 20.179688 26.382812 Z M 35.808594 11.542969 C 39.007812 17.128906 34.609375 25.582031 19.605469 29.550781 C 10.605469 31.929688 7.0625 36.839844 5.90625 41.5625 C 8.964844 38.21875 13.773438 35.398438 20.554688 34.175781 C 27.894531 32.859375 37.101562 28.828125 38.269531 20.320312 C 38.664062 17.4375 37.886719 14.152344 35.808594 11.542969 " fill-opacity="1" fill-rule="nonzero"/></g></svg>