<svg xmlns="http://www.w3.org/2000/svg" xmlns:xlink="http://www.w3.org/1999/xlink" width="200" zoomAndPan="magnify" viewBox="0 0 150 82.499998" height="90" preserveAspectRatio="xMidYMid meet" version="1.0"><defs><filter x="0%" y="0%" width="100%" height="100%" id="6d668dcc3f"><feColorMatrix values="0 0 0 0 1 0 0 0 0 1 0 0 0 0 1 0 0 0 1 0" color-interpolation-filters="sRGB"/></filter><g/><clipPath id="32135519a9"><path d="M 0.453125 17 L 48 17 L 48 69 L 0.453125 69 Z M 0.453125 17 " clip-rule="nonzero"/></clipPath><mask id="6c6de189d1"><g filter="url(#6d668dcc3f)"><rect x="-15" width="180" fill="#000000" y="-8.25" height="98.999997" fill-opacity="0.5"/></g></mask><clipPath id="4ef52b1282"><path d="M 0.453125 0.199219 L 47.253906 0.199219 L 47.253906 51.308594 L 0.453125 51.308594 Z M 0.453125 0.199219 " clip-rule="nonzero"/></clipPath><clipPath id="7ecbe46b11"><path d="M 0.453125 0.246094 L 4.261719 8.886719 L 30.050781 8.886719 C 30.050781 8.886719 35.769531 8.632812 36.277344 14.855469 C 36.277344 14.855469 37.417969 18.792969 31.320312 20.191406 L 9.21875 20.191406 L 13.28125 28.578125 L 30.6875 28.578125 C 30.6875 28.578125 38.308594 30.988281 38.179688 38.230469 C 38.179688 38.230469 39.707031 44.964844 25.476562 49.917969 L 25.476562 51.1875 C 25.476562 51.1875 47.964844 53.222656 47.199219 36.324219 C 47.199219 36.324219 48.34375 28.957031 39.960938 24.128906 C 39.960938 24.128906 47.453125 20.320312 45.550781 11.808594 C 45.550781 11.808594 45.296875 1.898438 32.464844 0.246094 Z M 0.453125 0.246094 " clip-rule="nonzero"/></clipPath><clipPath id="4f09f1bfd9"><rect x="0" width="48" y="0" height="52"/></clipPath><mask id="7f47a5accb"><g filter="url(#6d668dcc3f)"><rect x="-15" width="180" fill="#000000" y="-8.25" height="98.999997" fill-opacity="0.5"/></g></mask><clipPath id="b542d3de1b"><path d="M 0.453125 0.199219 L 47.253906 0.199219 L 47.253906 51.308594 L 0.453125 51.308594 Z M 0.453125 0.199219 " clip-rule="nonzero"/></clipPath><clipPath id="7691cde3d1"><path d="M 0.453125 0.246094 L 4.261719 8.886719 L 30.050781 8.886719 C 30.050781 8.886719 35.769531 8.632812 36.277344 14.855469 C 36.277344 14.855469 37.417969 18.792969 31.320312 20.191406 L 9.21875 20.191406 L 13.28125 28.578125 L 30.6875 28.578125 C 30.6875 28.578125 38.308594 30.988281 38.179688 38.230469 C 38.179688 38.230469 39.707031 44.964844 25.476562 49.917969 L 25.476562 51.1875 C 25.476562 51.1875 47.964844 53.222656 47.199219 36.324219 C 47.199219 36.324219 48.34375 28.957031 39.960938 24.128906 C 39.960938 24.128906 47.453125 20.320312 45.550781 11.808594 C 45.550781 11.808594 45.296875 1.898438 32.464844 0.246094 Z M 0.453125 0.246094 " clip-rule="nonzero"/></clipPath><clipPath id="6ea0f13792"><rect x="0" width="48" y="0" height="52"/></clipPath><mask id="bc51c09f75"><g filter="url(#6d668dcc3f)"><rect x="-15" width="180" fill="#000000" y="-8.25" height="98.999997" fill-opacity="0.5"/></g></mask><clipPath id="5d0243d81a"><path d="M 0.453125 0.199219 L 47.253906 0.199219 L 47.253906 51.308594 L 0.453125 51.308594 Z M 0.453125 0.199219 " clip-rule="nonzero"/></clipPath><clipPath id="4f1aacbcea"><path d="M 0.453125 0.246094 L 4.261719 8.886719 L 30.050781 8.886719 C 30.050781 8.886719 35.769531 8.632812 36.277344 14.855469 C 36.277344 14.855469 37.417969 18.792969 31.320312 20.191406 L 9.21875 20.191406 L 13.28125 28.578125 L 30.6875 28.578125 C 30.6875 28.578125 38.308594 30.988281 38.179688 38.230469 C 38.179688 38.230469 39.707031 44.964844 25.476562 49.917969 L 25.476562 51.1875 C 25.476562 51.1875 47.964844 53.222656 47.199219 36.324219 C 47.199219 36.324219 48.34375 28.957031 39.960938 24.128906 C 39.960938 24.128906 47.453125 20.320312 45.550781 11.808594 C 45.550781 11.808594 45.296875 1.898438 32.464844 0.246094 Z M 0.453125 0.246094 " clip-rule="nonzero"/></clipPath><clipPath id="859e91ebec"><rect x="0" width="48" y="0" height="52"/></clipPath><mask id="28022d0f18"><g filter="url(#6d668dcc3f)"><rect x="-15" width="180" fill="#000000" y="-8.25" height="98.999997" fill-opacity="0.5"/></g></mask><clipPath id="16c87870d7"><path d="M 0.453125 0.199219 L 47.253906 0.199219 L 47.253906 51.308594 L 0.453125 51.308594 Z M 0.453125 0.199219 " clip-rule="nonzero"/></clipPath><clipPath id="85c64e6fdc"><path d="M 0.453125 0.246094 L 4.261719 8.886719 L 30.050781 8.886719 C 30.050781 8.886719 35.769531 8.632812 36.277344 14.855469 C 36.277344 14.855469 37.417969 18.792969 31.320312 20.191406 L 9.21875 20.191406 L 13.28125 28.578125 L 30.6875 28.578125 C 30.6875 28.578125 38.308594 30.988281 38.179688 38.230469 C 38.179688 38.230469 39.707031 44.964844 25.476562 49.917969 L 25.476562 51.1875 C 25.476562 51.1875 47.964844 53.222656 47.199219 36.324219 C 47.199219 36.324219 48.34375 28.957031 39.960938 24.128906 C 39.960938 24.128906 47.453125 20.320312 45.550781 11.808594 C 45.550781 11.808594 45.296875 1.898438 32.464844 0.246094 Z M 0.453125 0.246094 " clip-rule="nonzero"/></clipPath><clipPath id="8df29bdbfa"><rect x="0" width="48" y="0" height="52"/></clipPath><mask id="84be060864"><g filter="url(#6d668dcc3f)"><rect x="-15" width="180" fill="#000000" y="-8.25" height="98.999997" fill-opacity="0.5"/></g></mask><clipPath id="c34be475e3"><path d="M 0.453125 0.199219 L 47.253906 0.199219 L 47.253906 51.308594 L 0.453125 51.308594 Z M 0.453125 0.199219 " clip-rule="nonzero"/></clipPath><clipPath id="eacf686468"><path d="M 0.453125 0.246094 L 4.261719 8.886719 L 30.050781 8.886719 C 30.050781 8.886719 35.769531 8.632812 36.277344 14.855469 C 36.277344 14.855469 37.417969 18.792969 31.320312 20.191406 L 9.21875 20.191406 L 13.28125 28.578125 L 30.6875 28.578125 C 30.6875 28.578125 38.308594 30.988281 38.179688 38.230469 C 38.179688 38.230469 39.707031 44.964844 25.476562 49.917969 L 25.476562 51.1875 C 25.476562 51.1875 47.964844 53.222656 47.199219 36.324219 C 47.199219 36.324219 48.34375 28.957031 39.960938 24.128906 C 39.960938 24.128906 47.453125 20.320312 45.550781 11.808594 C 45.550781 11.808594 45.296875 1.898438 32.464844 0.246094 Z M 0.453125 0.246094 " clip-rule="nonzero"/></clipPath><clipPath id="875f204507"><rect x="0" width="48" y="0" height="52"/></clipPath><mask id="e1769f55ed"><g filter="url(#6d668dcc3f)"><rect x="-15" width="180" fill="#000000" y="-8.25" height="98.999997" fill-opacity="0.5"/></g></mask><clipPath id="97e7d83900"><path d="M 0.847656 0.761719 L 37.226562 0.761719 L 37.226562 51.222656 L 0.847656 51.222656 Z M 0.847656 0.761719 " clip-rule="nonzero"/></clipPath><clipPath id="f2419997b2"><path d="M 0.847656 26.042969 L 22.824219 1.398438 L 35.398438 0.761719 L 13.042969 26.042969 L 37.179688 51.195312 L 24.730469 51.195312 Z M 0.847656 26.042969 " clip-rule="nonzero"/></clipPath><clipPath id="1fcb49bb04"><rect x="0" width="38" y="0" height="52"/></clipPath><mask id="b8c5137ee3"><g filter="url(#6d668dcc3f)"><rect x="-15" width="180" fill="#000000" y="-8.25" height="98.999997" fill-opacity="0.5"/></g></mask><clipPath id="7fa2829359"><path d="M 0.847656 0.761719 L 37.226562 0.761719 L 37.226562 51.222656 L 0.847656 51.222656 Z M 0.847656 0.761719 " clip-rule="nonzero"/></clipPath><clipPath id="ba512be19d"><path d="M 0.847656 26.042969 L 22.824219 1.398438 L 35.398438 0.761719 L 13.042969 26.042969 L 37.179688 51.195312 L 24.730469 51.195312 Z M 0.847656 26.042969 " clip-rule="nonzero"/></clipPath><clipPath id="d163a26041"><rect x="0" width="38" y="0" height="52"/></clipPath><mask id="1768709be3"><g filter="url(#6d668dcc3f)"><rect x="-15" width="180" fill="#000000" y="-8.25" height="98.999997" fill-opacity="0.5"/></g></mask><clipPath id="7809024518"><path d="M 0.847656 0.761719 L 37.226562 0.761719 L 37.226562 51.222656 L 0.847656 51.222656 Z M 0.847656 0.761719 " clip-rule="nonzero"/></clipPath><clipPath id="05d8075495"><path d="M 0.847656 26.042969 L 22.824219 1.398438 L 35.398438 0.761719 L 13.042969 26.042969 L 37.179688 51.195312 L 24.730469 51.195312 Z M 0.847656 26.042969 " clip-rule="nonzero"/></clipPath><clipPath id="861349fa67"><rect x="0" width="38" y="0" height="52"/></clipPath><mask id="16ce44c5e6"><g filter="url(#6d668dcc3f)"><rect x="-15" width="180" fill="#000000" y="-8.25" height="98.999997" fill-opacity="0.5"/></g></mask><clipPath id="915f92a796"><path d="M 0.847656 0.761719 L 37.226562 0.761719 L 37.226562 51.222656 L 0.847656 51.222656 Z M 0.847656 0.761719 " clip-rule="nonzero"/></clipPath><clipPath id="4cb0155d52"><path d="M 0.847656 26.042969 L 22.824219 1.398438 L 35.398438 0.761719 L 13.042969 26.042969 L 37.179688 51.195312 L 24.730469 51.195312 Z M 0.847656 26.042969 " clip-rule="nonzero"/></clipPath><clipPath id="21a383b410"><rect x="0" width="38" y="0" height="52"/></clipPath><mask id="134c3dd212"><g filter="url(#6d668dcc3f)"><rect x="-15" width="180" fill="#000000" y="-8.25" height="98.999997" fill-opacity="0.5"/></g></mask><clipPath id="cc89b43834"><path d="M 0.847656 0.761719 L 37.226562 0.761719 L 37.226562 51.222656 L 0.847656 51.222656 Z M 0.847656 0.761719 " clip-rule="nonzero"/></clipPath><clipPath id="f372f45df0"><path d="M 0.847656 26.042969 L 22.824219 1.398438 L 35.398438 0.761719 L 13.042969 26.042969 L 37.179688 51.195312 L 24.730469 51.195312 Z M 0.847656 26.042969 " clip-rule="nonzero"/></clipPath><clipPath id="28e07cefd7"><rect x="0" width="38" y="0" height="52"/></clipPath></defs><g clip-path="url(#32135519a9)"><g mask="url(#6c6de189d1)"><g transform="matrix(1, 0, 0, 1, 0, 17)"><g clip-path="url(#4f09f1bfd9)"><g clip-path="url(#4ef52b1282)"><g clip-path="url(#7ecbe46b11)"><path fill="#3b5144" d="M 0.453125 0.246094 L 47.253906 0.246094 L 47.253906 51.261719 L 0.453125 51.261719 Z M 0.453125 0.246094 " fill-opacity="1" fill-rule="nonzero"/></g></g></g></g></g><g mask="url(#7f47a5accb)"><g transform="matrix(1, 0, 0, 1, 0, 17)"><g clip-path="url(#6ea0f13792)"><g clip-path="url(#b542d3de1b)"><g clip-path="url(#7691cde3d1)"><path fill="#3b5144" d="M 0.453125 0.246094 L 47.253906 0.246094 L 47.253906 51.261719 L 0.453125 51.261719 Z M 0.453125 0.246094 " fill-opacity="1" fill-rule="nonzero"/></g></g></g></g></g><g mask="url(#bc51c09f75)"><g transform="matrix(1, 0, 0, 1, 0, 17)"><g clip-path="url(#859e91ebec)"><g clip-path="url(#5d0243d81a)"><g clip-path="url(#4f1aacbcea)"><path fill="#3b5144" d="M 0.453125 0.246094 L 47.253906 0.246094 L 47.253906 51.261719 L 0.453125 51.261719 Z M 0.453125 0.246094 " fill-opacity="1" fill-rule="nonzero"/></g></g></g></g></g><g mask="url(#28022d0f18)"><g transform="matrix(1, 0, 0, 1, 0, 17)"><g clip-path="url(#8df29bdbfa)"><g clip-path="url(#16c87870d7)"><g clip-path="url(#85c64e6fdc)"><path fill="#3b5144" d="M 0.453125 0.246094 L 47.253906 0.246094 L 47.253906 51.261719 L 0.453125 51.261719 Z M 0.453125 0.246094 " fill-opacity="1" fill-rule="nonzero"/></g></g></g></g></g><g mask="url(#84be060864)"><g transform="matrix(1, 0, 0, 1, 0, 17)"><g clip-path="url(#875f204507)"><g clip-path="url(#c34be475e3)"><g clip-path="url(#eacf686468)"><path fill="#3b5144" d="M 0.453125 0.246094 L 47.253906 0.246094 L 47.253906 51.261719 L 0.453125 51.261719 Z M 0.453125 0.246094 " fill-opacity="1" fill-rule="nonzero"/></g></g></g></g></g></g><g mask="url(#e1769f55ed)"><g transform="matrix(1, 0, 0, 1, 45, 16)"><g clip-path="url(#1fcb49bb04)"><g clip-path="url(#97e7d83900)"><g clip-path="url(#f2419997b2)"><path fill="#3b5144" d="M 0.847656 0.761719 L 37.179688 0.761719 L 37.179688 51.171875 L 0.847656 51.171875 Z M 0.847656 0.761719 " fill-opacity="1" fill-rule="nonzero"/></g></g></g></g></g><g mask="url(#b8c5137ee3)"><g transform="matrix(1, 0, 0, 1, 45, 16)"><g clip-path="url(#d163a26041)"><g clip-path="url(#7fa2829359)"><g clip-path="url(#ba512be19d)"><path fill="#3b5144" d="M 0.847656 0.761719 L 37.179688 0.761719 L 37.179688 51.171875 L 0.847656 51.171875 Z M 0.847656 0.761719 " fill-opacity="1" fill-rule="nonzero"/></g></g></g></g></g><g mask="url(#1768709be3)"><g transform="matrix(1, 0, 0, 1, 45, 16)"><g clip-path="url(#861349fa67)"><g clip-path="url(#7809024518)"><g clip-path="url(#05d8075495)"><path fill="#3b5144" d="M 0.847656 0.761719 L 37.179688 0.761719 L 37.179688 51.171875 L 0.847656 51.171875 Z M 0.847656 0.761719 " fill-opacity="1" fill-rule="nonzero"/></g></g></g></g></g><g mask="url(#16ce44c5e6)"><g transform="matrix(1, 0, 0, 1, 45, 16)"><g clip-path="url(#21a383b410)"><g clip-path="url(#915f92a796)"><g clip-path="url(#4cb0155d52)"><path fill="#3b5144" d="M 0.847656 0.761719 L 37.179688 0.761719 L 37.179688 51.171875 L 0.847656 51.171875 Z M 0.847656 0.761719 " fill-opacity="1" fill-rule="nonzero"/></g></g></g></g></g><g mask="url(#134c3dd212)"><g transform="matrix(1, 0, 0, 1, 45, 16)"><g clip-path="url(#28e07cefd7)"><g clip-path="url(#cc89b43834)"><g clip-path="url(#f372f45df0)"><path fill="#3b5144" d="M 0.847656 0.761719 L 37.179688 0.761719 L 37.179688 51.171875 L 0.847656 51.171875 Z M 0.847656 0.761719 " fill-opacity="1" fill-rule="nonzero"/></g></g></g></g></g><g fill="#000000" fill-opacity="1"><g transform="translate(93.661324, 31.555187)"><g><path d="M 13.359375 -8.140625 C 14.253906 -7.859375 14.953125 -7.382812 15.453125 -6.71875 C 15.960938 -6.0625 16.21875 -5.25 16.21875 -4.28125 C 16.21875 -2.90625 15.679688 -1.847656 14.609375 -1.109375 C 13.546875 -0.367188 11.992188 0 9.953125 0 L 1.859375 0 L 1.859375 -15.65625 L 9.515625 -15.65625 C 11.421875 -15.65625 12.882812 -15.289062 13.90625 -14.5625 C 14.925781 -13.832031 15.4375 -12.84375 15.4375 -11.59375 C 15.4375 -10.832031 15.253906 -10.148438 14.890625 -9.546875 C 14.523438 -8.953125 14.015625 -8.484375 13.359375 -8.140625 Z M 5.453125 -12.9375 L 5.453125 -9.234375 L 9.0625 -9.234375 C 9.957031 -9.234375 10.632812 -9.390625 11.09375 -9.703125 C 11.5625 -10.023438 11.796875 -10.488281 11.796875 -11.09375 C 11.796875 -11.707031 11.5625 -12.164062 11.09375 -12.46875 C 10.632812 -12.78125 9.957031 -12.9375 9.0625 -12.9375 Z M 9.6875 -2.734375 C 10.644531 -2.734375 11.363281 -2.890625 11.84375 -3.203125 C 12.332031 -3.515625 12.578125 -4 12.578125 -4.65625 C 12.578125 -5.945312 11.613281 -6.59375 9.6875 -6.59375 L 5.453125 -6.59375 L 5.453125 -2.734375 Z M 9.6875 -2.734375 "/></g></g></g><g fill="#000000" fill-opacity="1"><g transform="translate(110.779094, 31.555187)"><g><path d="M 13.40625 -5.96875 C 13.40625 -5.925781 13.378906 -5.613281 13.328125 -5.03125 L 4.234375 -5.03125 C 4.390625 -4.289062 4.773438 -3.703125 5.390625 -3.265625 C 6.003906 -2.835938 6.765625 -2.625 7.671875 -2.625 C 8.296875 -2.625 8.847656 -2.710938 9.328125 -2.890625 C 9.816406 -3.078125 10.269531 -3.375 10.6875 -3.78125 L 12.546875 -1.765625 C 11.421875 -0.472656 9.765625 0.171875 7.578125 0.171875 C 6.222656 0.171875 5.023438 -0.0859375 3.984375 -0.609375 C 2.941406 -1.140625 2.132812 -1.875 1.5625 -2.8125 C 1 -3.757812 0.71875 -4.828125 0.71875 -6.015625 C 0.71875 -7.191406 0.992188 -8.253906 1.546875 -9.203125 C 2.109375 -10.148438 2.878906 -10.890625 3.859375 -11.421875 C 4.835938 -11.953125 5.929688 -12.21875 7.140625 -12.21875 C 8.316406 -12.21875 9.378906 -11.960938 10.328125 -11.453125 C 11.285156 -10.941406 12.035156 -10.210938 12.578125 -9.265625 C 13.128906 -8.328125 13.40625 -7.226562 13.40625 -5.96875 Z M 7.15625 -9.578125 C 6.363281 -9.578125 5.695312 -9.351562 5.15625 -8.90625 C 4.625 -8.457031 4.300781 -7.847656 4.1875 -7.078125 L 10.109375 -7.078125 C 9.992188 -7.835938 9.664062 -8.441406 9.125 -8.890625 C 8.59375 -9.347656 7.9375 -9.578125 7.15625 -9.578125 Z M 7.15625 -9.578125 "/></g></g></g><g fill="#000000" fill-opacity="1"><g transform="translate(124.898454, 31.555187)"><g><path d="M 8.921875 -12.21875 C 10.421875 -12.21875 11.628906 -11.769531 12.546875 -10.875 C 13.460938 -9.976562 13.921875 -8.648438 13.921875 -6.890625 L 13.921875 0 L 10.421875 0 L 10.421875 -6.359375 C 10.421875 -7.304688 10.210938 -8.015625 9.796875 -8.484375 C 9.378906 -8.960938 8.773438 -9.203125 7.984375 -9.203125 C 7.109375 -9.203125 6.40625 -8.925781 5.875 -8.375 C 5.351562 -7.832031 5.09375 -7.023438 5.09375 -5.953125 L 5.09375 0 L 1.609375 0 L 1.609375 -12.03125 L 4.9375 -12.03125 L 4.9375 -10.625 C 5.40625 -11.132812 5.984375 -11.523438 6.671875 -11.796875 C 7.359375 -12.078125 8.109375 -12.21875 8.921875 -12.21875 Z M 8.921875 -12.21875 "/></g></g></g><g fill="#000000" fill-opacity="1"><g transform="translate(86.55595, 52.428679)"><g><path d="M 7.5625 -6.15625 L 5.453125 -3.953125 L 5.453125 0 L 1.859375 0 L 1.859375 -15.65625 L 5.453125 -15.65625 L 5.453125 -8.34375 L 12.390625 -15.65625 L 16.421875 -15.65625 L 9.9375 -8.6875 L 16.796875 0 L 12.578125 0 Z M 7.5625 -6.15625 "/></g></g></g><g fill="#000000" fill-opacity="1"><g transform="translate(103.114313, 52.428679)"><g><path d="M 1.609375 -12.03125 L 5.09375 -12.03125 L 5.09375 0 L 1.609375 0 Z M 3.34375 -13.71875 C 2.707031 -13.71875 2.1875 -13.898438 1.78125 -14.265625 C 1.375 -14.640625 1.171875 -15.101562 1.171875 -15.65625 C 1.171875 -16.207031 1.375 -16.671875 1.78125 -17.046875 C 2.1875 -17.421875 2.707031 -17.609375 3.34375 -17.609375 C 3.988281 -17.609375 4.507812 -17.425781 4.90625 -17.0625 C 5.3125 -16.707031 5.515625 -16.265625 5.515625 -15.734375 C 5.515625 -15.148438 5.3125 -14.664062 4.90625 -14.28125 C 4.507812 -13.90625 3.988281 -13.71875 3.34375 -13.71875 Z M 3.34375 -13.71875 "/></g></g></g><g fill="#000000" fill-opacity="1"><g transform="translate(109.849539, 52.428679)"><g><path d="M 0.71875 4.515625 C -0.507812 4.515625 -1.441406 4.289062 -2.078125 3.84375 L -1.140625 1.3125 C -0.734375 1.601562 -0.242188 1.75 0.328125 1.75 C 0.773438 1.75 1.125 1.601562 1.375 1.3125 C 1.632812 1.019531 1.765625 0.582031 1.765625 0 L 1.765625 -12.03125 L 5.265625 -12.03125 L 5.265625 -0.015625 C 5.265625 1.378906 4.863281 2.484375 4.0625 3.296875 C 3.257812 4.109375 2.144531 4.515625 0.71875 4.515625 Z M 3.5 -13.71875 C 2.863281 -13.71875 2.34375 -13.898438 1.9375 -14.265625 C 1.53125 -14.640625 1.328125 -15.101562 1.328125 -15.65625 C 1.328125 -16.207031 1.53125 -16.671875 1.9375 -17.046875 C 2.34375 -17.421875 2.863281 -17.609375 3.5 -17.609375 C 4.144531 -17.609375 4.664062 -17.425781 5.0625 -17.0625 C 5.46875 -16.707031 5.671875 -16.265625 5.671875 -15.734375 C 5.671875 -15.148438 5.46875 -14.664062 5.0625 -14.28125 C 4.664062 -13.90625 4.144531 -13.71875 3.5 -13.71875 Z M 3.5 -13.71875 "/></g></g></g><g fill="#000000" fill-opacity="1"><g transform="translate(116.719027, 52.428679)"><g><path d="M 13.734375 -12.03125 L 13.734375 0 L 10.421875 0 L 10.421875 -1.4375 C 9.960938 -0.914062 9.410156 -0.515625 8.765625 -0.234375 C 8.128906 0.0351562 7.4375 0.171875 6.6875 0.171875 C 5.101562 0.171875 3.847656 -0.28125 2.921875 -1.1875 C 2.003906 -2.09375 1.546875 -3.441406 1.546875 -5.234375 L 1.546875 -12.03125 L 5.03125 -12.03125 L 5.03125 -5.75 C 5.03125 -3.8125 5.84375 -2.84375 7.46875 -2.84375 C 8.300781 -2.84375 8.972656 -3.113281 9.484375 -3.65625 C 9.992188 -4.195312 10.25 -5.007812 10.25 -6.09375 L 10.25 -12.03125 Z M 13.734375 -12.03125 "/></g></g></g><g fill="#000000" fill-opacity="1"><g transform="translate(132.091451, 52.428679)"><g><path d="M 13.734375 -12.03125 L 13.734375 0 L 10.421875 0 L 10.421875 -1.4375 C 9.960938 -0.914062 9.410156 -0.515625 8.765625 -0.234375 C 8.128906 0.0351562 7.4375 0.171875 6.6875 0.171875 C 5.101562 0.171875 3.847656 -0.28125 2.921875 -1.1875 C 2.003906 -2.09375 1.546875 -3.441406 1.546875 -5.234375 L 1.546875 -12.03125 L 5.03125 -12.03125 L 5.03125 -5.75 C 5.03125 -3.8125 5.84375 -2.84375 7.46875 -2.84375 C 8.300781 -2.84375 8.972656 -3.113281 9.484375 -3.65625 C 9.992188 -4.195312 10.25 -5.007812 10.25 -6.09375 L 10.25 -12.03125 Z M 13.734375 -12.03125 "/></g></g></g><g fill="#000000" fill-opacity="1"><g transform="translate(86.877641, 65.746466)"><g><path d="M 2.109375 -4.90625 L 2.109375 -3.3125 L 4.90625 -3.3125 L 4.90625 -2.203125 L 2.109375 -2.203125 L 2.109375 0 L 0.71875 0 L 0.71875 -6.03125 L 5.265625 -6.03125 L 5.265625 -4.90625 Z M 2.109375 -4.90625 "/></g></g></g><g fill="#000000" fill-opacity="1"><g transform="translate(92.379169, 65.746466)"><g><path d="M 3.640625 0.109375 C 3.003906 0.109375 2.4375 -0.0234375 1.9375 -0.296875 C 1.4375 -0.566406 1.039062 -0.9375 0.75 -1.40625 C 0.46875 -1.882812 0.328125 -2.421875 0.328125 -3.015625 C 0.328125 -3.609375 0.46875 -4.140625 0.75 -4.609375 C 1.039062 -5.085938 1.4375 -5.457031 1.9375 -5.71875 C 2.4375 -5.988281 3.003906 -6.125 3.640625 -6.125 C 4.265625 -6.125 4.820312 -5.988281 5.3125 -5.71875 C 5.8125 -5.457031 6.207031 -5.085938 6.5 -4.609375 C 6.789062 -4.140625 6.9375 -3.609375 6.9375 -3.015625 C 6.9375 -2.421875 6.789062 -1.882812 6.5 -1.40625 C 6.207031 -0.9375 5.8125 -0.566406 5.3125 -0.296875 C 4.820312 -0.0234375 4.265625 0.109375 3.640625 0.109375 Z M 3.640625 -1.078125 C 3.992188 -1.078125 4.3125 -1.160156 4.59375 -1.328125 C 4.882812 -1.492188 5.109375 -1.722656 5.265625 -2.015625 C 5.429688 -2.304688 5.515625 -2.640625 5.515625 -3.015625 C 5.515625 -3.390625 5.429688 -3.722656 5.265625 -4.015625 C 5.109375 -4.304688 4.882812 -4.53125 4.59375 -4.6875 C 4.3125 -4.851562 3.992188 -4.9375 3.640625 -4.9375 C 3.273438 -4.9375 2.945312 -4.851562 2.65625 -4.6875 C 2.375 -4.53125 2.148438 -4.304688 1.984375 -4.015625 C 1.828125 -3.722656 1.75 -3.390625 1.75 -3.015625 C 1.75 -2.640625 1.828125 -2.304688 1.984375 -2.015625 C 2.148438 -1.722656 2.375 -1.492188 2.65625 -1.328125 C 2.945312 -1.160156 3.273438 -1.078125 3.640625 -1.078125 Z M 3.640625 -1.078125 "/></g></g></g><g fill="#000000" fill-opacity="1"><g transform="translate(99.645672, 65.746466)"><g><path d="M 3.390625 0.109375 C 2.523438 0.109375 1.851562 -0.128906 1.375 -0.609375 C 0.894531 -1.085938 0.65625 -1.769531 0.65625 -2.65625 L 0.65625 -6.03125 L 2.0625 -6.03125 L 2.0625 -2.703125 C 2.0625 -1.617188 2.507812 -1.078125 3.40625 -1.078125 C 3.84375 -1.078125 4.175781 -1.207031 4.40625 -1.46875 C 4.632812 -1.738281 4.75 -2.148438 4.75 -2.703125 L 4.75 -6.03125 L 6.125 -6.03125 L 6.125 -2.65625 C 6.125 -1.769531 5.882812 -1.085938 5.40625 -0.609375 C 4.925781 -0.128906 4.253906 0.109375 3.390625 0.109375 Z M 3.390625 0.109375 "/></g></g></g><g fill="#000000" fill-opacity="1"><g transform="translate(106.430033, 65.746466)"><g><path d="M 6.234375 -6.03125 L 6.234375 0 L 5.09375 0 L 2.09375 -3.65625 L 2.09375 0 L 0.71875 0 L 0.71875 -6.03125 L 1.875 -6.03125 L 4.859375 -2.375 L 4.859375 -6.03125 Z M 6.234375 -6.03125 "/></g></g></g><g fill="#000000" fill-opacity="1"><g transform="translate(113.386593, 65.746466)"><g><path d="M 0.71875 -6.03125 L 3.453125 -6.03125 C 4.109375 -6.03125 4.6875 -5.90625 5.1875 -5.65625 C 5.6875 -5.40625 6.078125 -5.050781 6.359375 -4.59375 C 6.640625 -4.144531 6.78125 -3.617188 6.78125 -3.015625 C 6.78125 -2.410156 6.640625 -1.878906 6.359375 -1.421875 C 6.078125 -0.972656 5.6875 -0.625 5.1875 -0.375 C 4.6875 -0.125 4.109375 0 3.453125 0 L 0.71875 0 Z M 3.390625 -1.140625 C 3.984375 -1.140625 4.457031 -1.304688 4.8125 -1.640625 C 5.175781 -1.984375 5.359375 -2.441406 5.359375 -3.015625 C 5.359375 -3.585938 5.175781 -4.039062 4.8125 -4.375 C 4.457031 -4.707031 3.984375 -4.875 3.390625 -4.875 L 2.109375 -4.875 L 2.109375 -1.140625 Z M 3.390625 -1.140625 "/></g></g></g><g fill="#000000" fill-opacity="1"><g transform="translate(120.498124, 65.746466)"><g><path d="M 4.6875 -1.296875 L 1.890625 -1.296875 L 1.359375 0 L -0.078125 0 L 2.609375 -6.03125 L 3.984375 -6.03125 L 6.6875 0 L 5.21875 0 Z M 4.25 -2.34375 L 3.28125 -4.65625 L 2.328125 -2.34375 Z M 4.25 -2.34375 "/></g></g></g><g fill="#000000" fill-opacity="1"><g transform="translate(127.093078, 65.746466)"><g><path d="M 1.96875 -4.890625 L 0.03125 -4.890625 L 0.03125 -6.03125 L 5.28125 -6.03125 L 5.28125 -4.890625 L 3.359375 -4.890625 L 3.359375 0 L 1.96875 0 Z M 1.96875 -4.890625 "/></g></g></g><g fill="#000000" fill-opacity="1"><g transform="translate(132.413813, 65.746466)"><g><path d="M 0.71875 -6.03125 L 2.109375 -6.03125 L 2.109375 0 L 0.71875 0 Z M 0.71875 -6.03125 "/></g></g></g><g fill="#000000" fill-opacity="1"><g transform="translate(135.237766, 65.746466)"><g><path d="M 3.640625 0.109375 C 3.003906 0.109375 2.4375 -0.0234375 1.9375 -0.296875 C 1.4375 -0.566406 1.039062 -0.9375 0.75 -1.40625 C 0.46875 -1.882812 0.328125 -2.421875 0.328125 -3.015625 C 0.328125 -3.609375 0.46875 -4.140625 0.75 -4.609375 C 1.039062 -5.085938 1.4375 -5.457031 1.9375 -5.71875 C 2.4375 -5.988281 3.003906 -6.125 3.640625 -6.125 C 4.265625 -6.125 4.820312 -5.988281 5.3125 -5.71875 C 5.8125 -5.457031 6.207031 -5.085938 6.5 -4.609375 C 6.789062 -4.140625 6.9375 -3.609375 6.9375 -3.015625 C 6.9375 -2.421875 6.789062 -1.882812 6.5 -1.40625 C 6.207031 -0.9375 5.8125 -0.566406 5.3125 -0.296875 C 4.820312 -0.0234375 4.265625 0.109375 3.640625 0.109375 Z M 3.640625 -1.078125 C 3.992188 -1.078125 4.3125 -1.160156 4.59375 -1.328125 C 4.882812 -1.492188 5.109375 -1.722656 5.265625 -2.015625 C 5.429688 -2.304688 5.515625 -2.640625 5.515625 -3.015625 C 5.515625 -3.390625 5.429688 -3.722656 5.265625 -4.015625 C 5.109375 -4.304688 4.882812 -4.53125 4.59375 -4.6875 C 4.3125 -4.851562 3.992188 -4.9375 3.640625 -4.9375 C 3.273438 -4.9375 2.945312 -4.851562 2.65625 -4.6875 C 2.375 -4.53125 2.148438 -4.304688 1.984375 -4.015625 C 1.828125 -3.722656 1.75 -3.390625 1.75 -3.015625 C 1.75 -2.640625 1.828125 -2.304688 1.984375 -2.015625 C 2.148438 -1.722656 2.375 -1.492188 2.65625 -1.328125 C 2.945312 -1.160156 3.273438 -1.078125 3.640625 -1.078125 Z M 3.640625 -1.078125 "/></g></g></g><g fill="#000000" fill-opacity="1"><g transform="translate(142.504269, 65.746466)"><g><path d="M 6.234375 -6.03125 L 6.234375 0 L 5.09375 0 L 2.09375 -3.65625 L 2.09375 0 L 0.71875 0 L 0.71875 -6.03125 L 1.875 -6.03125 L 4.859375 -2.375 L 4.859375 -6.03125 Z M 6.234375 -6.03125 "/></g></g></g></svg>
